<svg width="1021" height="664" viewBox="0 0 1021 664" fill="none" xmlns="http://www.w3.org/2000/svg">
<path d="M0 40.25C0 26.0127 0 18.8941 2.81466 13.4756C5.18655 8.90956 8.90956 5.18655 13.4756 2.81466C18.8941 0 26.0127 0 40.25 0H980.75C994.987 0 1002.11 0 1007.52 2.81466C1012.09 5.18655 1015.81 8.90956 1018.19 13.4756C1021 18.8941 1021 26.0127 1021 40.25V623.75C1021 637.987 1021 645.106 1018.19 650.524C1015.81 655.09 1012.09 658.813 1007.52 661.185C1002.11 664 994.987 664 980.75 664H40.25C26.0127 664 18.8941 664 13.4756 661.185C8.90956 658.813 5.18655 655.09 2.81466 650.524C0 645.106 0 637.987 0 623.75V40.25Z" fill="#F0DBC9"/>
</svg>
